<?xml version="1.0" encoding="UTF-8"?>
<svg xmlns="http://www.w3.org/2000/svg" width="1440" height="3480" viewBox="0 0 1440 3480" font-family="Segoe UI, Arial, sans-serif">
  <defs>
    <style>
      .title { font-size: 32px; font-weight: 700; fill: #f2f2f5; }
      .sub   { font-size: 14px; font-weight: 400; fill: #8b8b96; }
      .h2    { font-size: 22px; font-weight: 600; fill: #f2f2f5; }
      .h3    { font-size: 15px; font-weight: 600; fill: #f2f2f5; }
      .label { font-size: 12px; font-weight: 500; fill: #8b8b96; }
      .mono  { font-family: Consolas, 'Courier New', monospace; font-size: 11px; fill: #8b8b96; }
      .body  { font-size: 14px; font-weight: 400; fill: #f2f2f5; }
      .small { font-size: 12.5px; font-weight: 400; fill: #8b8b96; }
      .accentbar { stroke: #5aa2e6; stroke-width: 28; }
    </style>
  </defs>

  <!-- ======================== canvas ======================== -->
  <rect width="1440" height="3480" fill="#0f0f14"/>

  <!-- ======================== header ======================== -->
  <g transform="translate(64,56)">
    <g transform="scale(0.75)">
      <rect width="24" height="6" fill="#5aa2e6"/><rect x="28" width="24" height="6" fill="#8774e1"/>
      <rect y="10" width="24" height="6" fill="#4fae4f"/><rect x="28" y="10" width="24" height="6" fill="#e0a03a"/>
      <rect y="20" width="52" height="4" fill="#2b5278"/>
    </g>
    <text x="64" y="26" class="title">Velta Design System</text>
    <text x="64" y="52" class="sub">Tokens from app/css/main.css · components from app/js · v1.4.3 · 2026-09-16 · dark is the primary theme</text>
  </g>

  <!-- ======================== colors dark ======================== -->
  <text x="64" y="182" class="h2">Colors — Dark (primary)</text>
  <g transform="translate(64,196)">
    <rect width="1312" height="300" rx="12" fill="#181820" stroke="rgba(244,244,244,0.07)"/>
    <!-- row 1 -->
    <g transform="translate(24,24)">
      <rect width="128" height="62" rx="8" fill="#0f0f14" stroke="rgba(244,244,244,0.12)"/>
      <text y="80" class="label">--bg</text><text y="96" class="mono">#0f0f14</text>
    </g>
    <g transform="translate(166,24)">
      <rect width="128" height="62" rx="8" fill="#181820" stroke="rgba(244,244,244,0.12)"/>
      <text y="80" class="label">--bg-sidebar</text><text y="96" class="mono">#181820</text>
    </g>
    <g transform="translate(308,24)">
      <rect width="128" height="62" rx="8" fill="#0b0b10" stroke="rgba(244,244,244,0.12)"/>
      <text y="80" class="label">--bg-chat</text><text y="96" class="mono">#0b0b10</text>
    </g>
    <g transform="translate(450,24)">
      <rect width="128" height="62" rx="8" fill="#1c1c26" stroke="rgba(244,244,244,0.12)"/>
      <text y="80" class="label">--bg-bubble-in</text><text y="96" class="mono">#1c1c26</text>
    </g>
    <g transform="translate(592,24)">
      <rect width="128" height="62" rx="8" fill="#2b5278"/>
      <text y="80" class="label">--bg-bubble-out</text><text y="96" class="mono">#2b5278</text>
    </g>
    <g transform="translate(734,24)">
      <rect width="128" height="62" rx="8" fill="#5aa2e6"/>
      <text y="80" class="label">--accent</text><text y="96" class="mono">#5aa2e6</text>
    </g>
    <g transform="translate(876,24)">
      <rect width="128" height="62" rx="8" fill="#8774e1"/>
      <text y="80" class="label">--accent-2</text><text y="96" class="mono">#8774e1</text>
    </g>
    <g transform="translate(1018,24)">
      <rect width="128" height="62" rx="8" fill="#f2f2f5"/>
      <text y="80" class="label">--text</text><text y="96" class="mono">#f2f2f5</text>
    </g>
    <g transform="translate(1160,24)">
      <rect width="128" height="62" rx="8" fill="#8b8b96"/>
      <text y="80" class="label">--text-dim</text><text y="96" class="mono">#8b8b96</text>
    </g>
    <!-- row 2 -->
    <g transform="translate(24,146)">
      <rect width="128" height="62" rx="8" fill="#7d7d8a"/>
      <text y="80" class="label">--text-meta-in</text><text y="96" class="mono">#7d7d8a</text>
    </g>
    <g transform="translate(166,146)">
      <rect width="128" height="62" rx="8" fill="#a8c6e2"/>
      <text y="80" class="label">--text-meta-out</text><text y="96" class="mono">#a8c6e2</text>
    </g>
    <g transform="translate(308,146)">
      <rect width="128" height="62" rx="8" fill="#4fae4f"/>
      <text y="80" class="label">--green</text><text y="96" class="mono">#4fae4f</text>
    </g>
    <g transform="translate(450,146)">
      <rect width="128" height="62" rx="8" fill="#e05a5a"/>
      <text y="80" class="label">--danger</text><text y="96" class="mono">#e05a5a</text>
    </g>
    <g transform="translate(592,146)">
      <rect width="128" height="62" rx="8" fill="#0f0f14" stroke="rgba(244,244,244,0.07)" stroke-width="2"/>
      <text y="80" class="label">--border</text><text y="96" class="mono">rgba(244,244,244,.07)</text>
    </g>
    <g transform="translate(734,146)">
      <rect width="128" height="62" rx="8" fill="rgba(244,244,244,0.055)" stroke="rgba(244,244,244,0.12)"/>
      <text y="80" class="label">--bg-hover</text><text y="96" class="mono">rgba(244,244,244,.055)</text>
    </g>
    <g transform="translate(876,146)">
      <rect width="128" height="62" rx="8" fill="#2b5278" stroke="rgba(244,244,244,0.12)"/>
      <text y="80" class="label">--bg-active</text><text y="96" class="mono">#2b5278</text>
    </g>
    <g transform="translate(1018,146)">
      <rect width="128" height="62" rx="8" fill="rgba(244,244,244,0.06)" stroke="rgba(244,244,244,0.12)"/>
      <text y="80" class="label">--bg-reply</text><text y="96" class="mono">rgba(244,244,244,.06)</text>
    </g>
    <!-- row 3: semantic usage -->
    <g transform="translate(24,268)">
      <text class="small">Usage: bg-chat canvas · sidebar panels · bubble-in for received · bubble-out doubles as bg-active ·</text>
      <text y="18" class="small">accent for actions/links/unread · accent-2 p2p+local chat · green online/verified presence · danger destructive</text>
    </g>
  </g>

  <!-- ======================== colors light ======================== -->
  <text x="64" y="542" class="h2">Colors — Light</text>
  <g transform="translate(64,556)">
    <rect width="1312" height="196" rx="12" fill="#e7ebf0" stroke="rgba(16,16,16,0.08)"/>
    <g transform="translate(24,24)">
      <rect width="128" height="62" rx="8" fill="#f4f4f4" stroke="rgba(16,16,16,0.15)"/>
      <text y="80" class="label" fill="#6f7480">--bg / sidebar</text><text y="96" class="mono" fill="#6f7480">#f4f4f4</text>
    </g>
    <g transform="translate(166,24)">
      <rect width="128" height="62" rx="8" fill="#e7ebf0" stroke="rgba(16,16,16,0.15)"/>
      <text y="80" class="label" fill="#6f7480">--bg-chat</text><text y="96" class="mono" fill="#6f7480">#e7ebf0</text>
    </g>
    <g transform="translate(308,24)">
      <rect width="128" height="62" rx="8" fill="#e1f0fb"/>
      <text y="80" class="label" fill="#6f7480">--bg-bubble-out</text><text y="96" class="mono" fill="#6f7480">#e1f0fb</text>
    </g>
    <g transform="translate(450,24)">
      <rect width="128" height="62" rx="8" fill="#3390ec"/>
      <text y="80" class="label" fill="#6f7480">--accent</text><text y="96" class="mono" fill="#6f7480">#3390ec</text>
    </g>
    <g transform="translate(592,24)">
      <rect width="128" height="62" rx="8" fill="#5aa2e6"/>
      <text y="80" class="label" fill="#6f7480">--bg-active</text><text y="96" class="mono" fill="#6f7480">#5aa2e6</text>
    </g>
    <g transform="translate(734,24)">
      <rect width="128" height="62" rx="8" fill="#16181d"/>
      <text y="80" class="label" fill="#6f7480">--text</text><text y="96" class="mono" fill="#6f7480">#16181d</text>
    </g>
    <g transform="translate(876,24)">
      <rect width="128" height="62" rx="8" fill="#6f7480"/>
      <text y="80" class="label" fill="#6f7480">--text-dim</text><text y="96" class="mono" fill="#6f7480">#6f7480</text>
    </g>
    <g transform="translate(1018,24)">
      <rect width="128" height="62" rx="8" fill="#9aa0ab"/>
      <text y="80" class="label" fill="#6f7480">--text-meta-in</text><text y="96" class="mono" fill="#6f7480">#9aa0ab</text>
    </g>
    <g transform="translate(1160,24)">
      <rect width="128" height="62" rx="8" fill="#4d9bdb"/>
      <text y="80" class="label" fill="#6f7480">--text-meta-out</text><text y="96" class="mono" fill="#6f7480">#4d9bdb</text>
    </g>
    <g transform="translate(24,142)">
      <text class="small" fill="#5d636e">Bubble-in is the page background (#f4f4f4) with a border — received messages read as paper on the grey-blue canvas.</text>
    </g>
  </g>

  <!-- ======================== typography ======================== -->
  <text x="64" y="800" class="h2">Typography — system UI stack</text>
  <g transform="translate(64,814)">
    <rect width="1312" height="270" rx="12" fill="#181820" stroke="rgba(244,244,244,0.07)"/>
    <text x="24" y="44" font-size="32" font-weight="700" fill="#f2f2f5">Title 32 / 700</text>
    <text x="1100" y="44" class="mono">app name, empty states</text>
    <text x="24" y="86" font-size="22" font-weight="600" fill="#f2f2f5">Heading 22 / 600</text>
    <text x="1100" y="86" class="mono">modal titles</text>
    <text x="24" y="120" font-size="15" font-weight="600" fill="#f2f2f5">Item title 15 / 600</text>
    <text x="1100" y="120" class="mono">chat list name</text>
    <text x="24" y="152" font-size="14" font-weight="400" fill="#f2f2f5">Body 14 / 400 — message text, list rows, forms.</text>
    <text x="1100" y="152" class="mono">base size</text>
    <text x="24" y="184" font-size="13" font-weight="400" fill="#8b8b96">Meta 13 / 400 — timestamps, subtitles, relay detail.</text>
    <text x="1100" y="184" class="mono">--text-dim</text>
    <text x="24" y="214" font-size="12.5" font-weight="500" fill="#8b8b96">Caption 12.5 / 500 — day chips, bot chips, hints.</text>
    <text x="1100" y="214" class="mono">500 weight</text>
    <text x="24" y="246" font-family="Consolas, 'Courier New', monospace" font-size="12" fill="#5aa2e6">F9CD 17C3 A2BE 4401 92F7  3D20 86A1 55B0 E19C 04D2</text>
    <text x="1100" y="246" class="mono">fingerprint, mono 12</text>
  </g>

  <!-- ======================== radius + icons ======================== -->
  <text x="64" y="1134" class="h2">Shape</text>
  <text x="736" y="1134" class="h2">Icons</text>
  <g transform="translate(64,1148)">
    <rect width="640" height="150" rx="12" fill="#181820" stroke="rgba(244,244,244,0.07)"/>
    <g transform="translate(24,24)">
      <rect width="120" height="60" fill="#2b5278"/>
      <text x="60" y="82" class="mono" text-anchor="middle">0 — avatar tile</text>
    </g>
    <g transform="translate(168,24)">
      <rect width="120" height="60" rx="14" fill="#2b5278"/>
      <text x="60" y="82" class="mono" text-anchor="middle">14 — bubbles</text>
    </g>
    <g transform="translate(340,24)">
      <rect width="120" height="60" rx="12" fill="#2b5278"/>
      <text x="60" y="82" class="mono" text-anchor="middle">12 — cards</text>
    </g>
    <g transform="translate(512,24)">
      <rect width="104" height="60" rx="30" fill="#2b5278"/>
      <text x="52" y="82" class="mono" text-anchor="middle">999 — chips</text>
    </g>
  </g>
  <g transform="translate(736,1148)">
    <rect width="640" height="150" rx="12" fill="#181820" stroke="rgba(244,244,244,0.07)"/>
    <g transform="translate(30,40)">
      <path d="M12 2l2.4 2.1 3.1-.4 1.1 3 3 1.1-.4 3.1L23.3 13l-2.1 2.4.4 3.1-3 1.1-1.1 3-3.1-.4L12 24l-2.4-2.1-3.1.4-1.1-3-3-1.1.4-3.1L.7 13l2.1-2.4-.4-3.1 3-1.1 1.1-3 3.1.4z" fill="#5aa2e6" transform="scale(.92) translate(1,0)"/>
      <path d="M8.5 12.5l2.5 2.5 4.5-5" fill="none" stroke="#f4f4f4" stroke-width="2.2" stroke-linecap="round" stroke-linejoin="round"/>
      <text y="46" class="mono" text-anchor="middle">verified</text>
    </g>
    <g transform="translate(110,40)">
      <path d="M9 4h6l1 7 3 3v2h-6v5l-1 1-1-1v-5H5v-2l3-3z" fill="#8b8b96"/>
      <text y="46" class="mono" text-anchor="middle">pinned</text>
    </g>
    <g transform="translate(186,40)">
      <path d="M12 3a5 5 0 00-5 5v3l-2 4h14l-2-4V8a5 5 0 00-5-5z" fill="none" stroke="#8b8b96" stroke-width="1.8" stroke-linejoin="round"/>
      <path d="M4 4l16 16" stroke="#8b8b96" stroke-width="2"/>
      <text y="46" class="mono" text-anchor="middle">muted</text>
    </g>
    <g transform="translate(262,40)">
      <path d="M2.5 9.5a14 14 0 0119 0M5.5 13a9.5 9.5 0 0113 0M8.5 16.5a5 5 0 017 0" fill="none" stroke="#8774e1" stroke-width="2"/>
      <circle cx="12" cy="19.5" r="1.4" fill="#8774e1"/>
      <text y="46" class="mono" text-anchor="middle">p2p chat</text>
    </g>
    <g transform="translate(344,40)">
      <rect x="5" y="11" width="14" height="10" rx="2" fill="none" stroke="#e0a03a" stroke-width="2"/>
      <path d="M8 11V7a4 4 0 017.6-1.7" fill="none" stroke="#e0a03a" stroke-width="2" stroke-linecap="round"/>
      <text y="46" class="mono" text-anchor="middle">plain email</text>
    </g>
    <g transform="translate(428,44)">
      <path d="M5 13l4 4L19 7" fill="none" stroke="#a8c6e2" stroke-width="2.2" stroke-linecap="round" stroke-linejoin="round"/>
      <text x="12" y="46" class="mono" text-anchor="middle">sent</text>
    </g>
    <g transform="translate(496,44)">
      <path d="M3 13l4 4L17 7M10 15l2 2 8-8" fill="none" stroke="#5aa2e6" stroke-width="2.2" stroke-linecap="round" stroke-linejoin="round"/>
      <text x="24" y="46" class="mono">delivered / read</text>
    </g>
  </g>

  <!-- ======================== avatars ======================== -->
  <text x="64" y="1360" class="h2">Avatars — GPG fingerprint identity tiles</text>
  <text x="1060" y="1360" class="sub">10 cells: 3×40 · 2×60 · 2×60 · 3×40</text>
  <g transform="translate(64,1374)">
    <rect width="1312" height="212" rx="12" fill="#181820" stroke="rgba(244,244,244,0.07)"/>
    <!-- tile 1: plain -->
    <g transform="translate(28,32)">
      <rect width="120" height="30" fill="steelblue"/><rect x="40" width="40" height="30" fill="goldenrod"/><rect x="80" width="40" height="30" fill="seagreen"/>
      <rect y="30" width="60" height="30" fill="tomato"/><rect x="60" y="30" width="60" height="30" fill="indigo"/>
      <rect y="60" width="60" height="30" fill="mediumorchid"/><rect x="60" y="60" width="60" height="30" fill="darkorange"/>
      <rect y="90" width="40" height="30" fill="teal"/><rect x="40" y="90" width="40" height="30" fill="coral"/><rect x="80" y="90" width="40" height="30" fill="lightslategray"/>
      <rect width="120" height="120" fill="none" stroke="rgba(244,244,244,0.12)"/>
      <text x="60" y="146" class="mono" text-anchor="middle">contact avatar 120×120</text>
    </g>
    <!-- tile 2: with badge -->
    <g transform="translate(208,32)">
      <rect width="120" height="30" fill="darkorange"/><rect x="40" width="40" height="30" fill="teal"/><rect x="80" width="40" height="30" fill="mediumorchid"/>
      <rect y="30" width="60" height="30" fill="lightslategray"/><rect x="60" y="30" width="60" height="30" fill="goldenrod"/>
      <rect y="60" width="60" height="30" fill="seagreen"/><rect x="60" y="60" width="60" height="30" fill="coral"/>
      <rect y="90" width="40" height="30" fill="indigo"/><rect x="40" y="90" width="40" height="30" fill="steelblue"/><rect x="80" y="90" width="40" height="30" fill="tomato"/>
      <circle cx="60" cy="60" r="38" fill="#141414" fill-opacity="0.82"/>
      <g transform="translate(60,60) scale(2.6) translate(-12,-12)" fill="none" stroke="#f4f4f4" stroke-width="1.4" stroke-linecap="round">
        <path d="M8.10008 21.221C6.71021 19.2375 5.89258 16.8243 5.89258 14.2187C5.89258 10.8443 8.6265 8.10938 11.9989 8.10938C15.3712 8.10938 18.1051 10.8443 18.1051 14.2187"/>
        <path d="M18.4361 20.3118C18.3262 20.3179 18.2182 20.3281 18.1073 20.3281C14.7349 20.3281 12.001 17.5931 12.001 14.2188"/>
        <path d="M13.2694 21.9999C10.675 20.382 8.94705 17.5024 8.94705 14.2187C8.94705 12.5315 10.3145 11.164 12.0007 11.164C13.6869 11.164 15.0543 12.5315 15.0543 14.2187C15.0543 15.9059 16.4218 17.2733 18.108 17.2733C19.7942 17.2733 21.1616 15.9059 21.1616 14.2187C21.1616 9.1571 17.0602 5.05469 12.0017 5.05469C6.94319 5.05469 2.8418 9.1571 2.8418 14.2187C2.8418 15.3469 2.96806 16.4455 3.20021 17.5045"/>
      </g>
      <rect width="120" height="120" fill="none" stroke="rgba(244,244,244,0.12)"/>
      <text x="60" y="146" class="mono" text-anchor="middle">key badge overlay (no photo yet)</text>
    </g>
    <!-- tile 3 spot: reading guide -->
    <g transform="translate(388,32)">
      <text x="24" y="20" class="body">Reads like an identity, not a random avatar:</text>
      <text x="24" y="44" class="small">• every cell color comes from one fingerprint group</text>
      <text x="24" y="66" class="small">• neighboring cells never clash; no color repeats in a tile</text>
      <text x="24" y="88" class="small">• profile view captions each cell with its color name,</text>
      <text x="24" y="108" class="small">  so two people can verify a fingerprint by words alone</text>
      <text x="24" y="130" class="small">• photo, when set, layers on top; tile stays underneath</text>
    </g>
  </g>

  <!-- ======================== chat list item ======================== -->
  <text x="64" y="1646" class="h2">Component: chat list item</text>
  <g transform="translate(64,1660)">
    <rect width="1312" height="220" rx="12" fill="#181820" stroke="rgba(244,244,244,0.07)"/>
    <!-- normal -->
    <g transform="translate(24,24)">
      <rect width="404" height="76" rx="12" fill="#0f0f14" stroke="rgba(244,244,244,0.07)"/>
      <g transform="translate(12,14)">
        <rect width="16" height="12" fill="steelblue"/><rect x="16" width="16" height="12" fill="goldenrod"/><rect x="32" width="16" height="12" fill="seagreen"/>
        <rect y="12" width="24" height="12" fill="tomato"/><rect x="24" y="12" width="24" height="12" fill="indigo"/>
        <rect y="24" width="24" height="12" fill="mediumorchid"/><rect x="24" y="24" width="24" height="12" fill="darkorange"/>
        <rect y="36" width="16" height="12" fill="teal"/><rect x="16" y="36" width="16" height="12" fill="coral"/><rect x="32" y="36" width="16" height="12" fill="lightslategray"/>
      </g>
      <text x="72" y="32" class="h3">Pavel</text>
      <text x="72" y="56" class="small" fill="#8b8b96">Спишь?</text>
      <text x="330" y="28" class="label">17:20</text>
      <g transform="translate(360,16) scale(.75)">
        <path d="M3 13l4 4L17 7M10 15l2 2 8-8" fill="none" stroke="#a8c6e2" stroke-width="2.4" stroke-linecap="round" stroke-linejoin="round"/>
      </g>
    </g>
    <!-- active + unread -->
    <g transform="translate(452,24)">
      <rect width="404" height="76" rx="12" fill="#2b5278"/>
      <g transform="translate(12,14)">
        <rect width="16" height="12" fill="darkorange"/><rect x="16" width="16" height="12" fill="teal"/><rect x="32" width="16" height="12" fill="mediumorchid"/>
        <rect y="12" width="24" height="12" fill="lightslategray"/><rect x="24" y="12" width="24" height="12" fill="goldenrod"/>
        <rect y="24" width="24" height="12" fill="seagreen"/><rect x="24" y="24" width="24" height="12" fill="coral"/>
        <rect y="36" width="16" height="12" fill="indigo"/><rect x="16" y="36" width="16" height="12" fill="steelblue"/><rect x="32" y="36" width="16" height="12" fill="tomato"/>
      </g>
      <text x="72" y="32" class="h3" fill="#f4f4f4">Delta Chat</text>
      <text x="72" y="56" class="small" fill="rgba(244,244,244,0.75)">image · 2</text>
      <text x="330" y="28" class="label" fill="rgba(244,244,244,0.75)">16:25</text>
      <rect x="356" y="42" width="32" height="22" rx="11" fill="#5aa2e6"/>
      <text x="372" y="57" font-size="12.5" font-weight="600" fill="#0f0f14" text-anchor="middle">11</text>
    </g>
    <!-- badges row -->
    <g transform="translate(880,24)">
      <rect width="408" height="76" rx="12" fill="#0f0f14" stroke="rgba(244,244,244,0.07)"/>
      <text x="16" y="30" class="h3">Velta News</text>
      <g transform="translate(120,12) scale(.8)">
        <path d="M12 2l2.4 2.1 3.1-.4 1.1 3 3 1.1-.4 3.1L23.3 13l-2.1 2.4.4 3.1-3 1.1-1.1 3-3.1-.4L12 24l-2.4-2.1-3.1.4-1.1-3-3-1.1.4-3.1L.7 13l2.1-2.4-.4-3.1 3-1.1 1.1-3 3.1.4z" fill="#5aa2e6" transform="scale(.92) translate(1,0)"/>
        <path d="M8.5 12.5l2.5 2.5 4.5-5" fill="none" stroke="#f4f4f4" stroke-width="2.2" stroke-linecap="round" stroke-linejoin="round"/>
      </g>
      <g transform="translate(150,14) scale(.7)">
        <path d="M9 4h6l1 7 3 3v2h-6v5l-1 1-1-1v-5H5v-2l3-3z" fill="#8b8b96"/>
      </g>
      <g transform="translate(174,14) scale(.65)">
        <path d="M12 3a5 5 0 00-5 5v3l-2 4h14l-2-4V8a5 5 0 00-5-5z" fill="none" stroke="#8b8b96" stroke-width="1.8" stroke-linejoin="round"/>
        <path d="M4 4l16 16" stroke="#8b8b96" stroke-width="2"/>
      </g>
      <text x="16" y="56" class="small" fill="#8b8b96">pinned + muted + verified stack next to the name</text>
      <text x="16" y="100" class="small" fill="#8774e1">wifi mark = serverless p2p chat (accent-2)</text>
      <g transform="translate(330,86) scale(.7)">
        <path d="M2.5 9.5a14 14 0 0119 0M5.5 13a9.5 9.5 0 0113 0M8.5 16.5a5 5 0 017 0" fill="none" stroke="#8774e1" stroke-width="2"/>
        <circle cx="12" cy="19.5" r="1.4" fill="#8774e1"/>
      </g>
      <text x="16" y="144" class="small" fill="#e0a03a">open lock = unencrypted classic-email contact</text>
      <g transform="translate(280,130) scale(.7)">
        <rect x="5" y="11" width="14" height="10" rx="2" fill="none" stroke="#e0a03a" stroke-width="2"/>
        <path d="M8 11V7a4 4 0 017.6-1.7" fill="none" stroke="#e0a03a" stroke-width="2" stroke-linecap="round"/>
      </g>
    </g>
  </g>

  <!-- ======================== bubbles ======================== -->
  <text x="64" y="1940" class="h2">Component: message bubbles</text>
  <g transform="translate(64,1954)">
    <rect width="1312" height="330" rx="12" fill="#0b0b10" stroke="rgba(244,244,244,0.07)"/>
    <!-- in bubble with quote -->
    <g transform="translate(24,32)">
      <rect width="360" height="128" rx="14" fill="#1c1c26"/>
      <rect x="14" y="14" width="3" height="40" rx="1.5" fill="#5aa2e6"/>
      <text x="28" y="28" font-size="13" font-weight="600" fill="#5aa2e6">Pavel</text>
      <text x="28" y="48" class="small" fill="#8b8b96">Обзавёлся сбердевайсом?</text>
      <text x="14" y="76" class="body">Да, с утра</text>
      <text x="230" y="110" class="small" fill="#7d7d8a">16:25</text>
      <text x="330" y="20" class="mono" text-anchor="end">--bg-bubble-in · meta-in</text>
    </g>
    <!-- out bubble with quote, read -->
    <g transform="translate(432,32)">
      <rect width="360" height="128" rx="14" fill="#2b5278"/>
      <rect x="14" y="14" width="3" height="40" rx="1.5" fill="rgba(244,244,244,0.55)"/>
      <text x="28" y="48" class="small" fill="#dfeaf6">немного</text>
      <text x="14" y="76" class="body">ясно</text>
      <text x="230" y="110" class="small" fill="#a8c6e2">06:19</text>
      <g transform="translate(320,102) scale(.75)">
        <path d="M3 13l4 4L17 7M10 15l2 2 8-8" fill="none" stroke="#5aa2e6" stroke-width="2.2" stroke-linecap="round" stroke-linejoin="round"/>
      </g>
      <text x="330" y="20" class="mono" text-anchor="end">quote: rgba(244,244,244,.55)</text>
    </g>
    <!-- out sending -->
    <g transform="translate(840,32)">
      <rect width="360" height="128" rx="14" fill="#2b5278"/>
      <text x="14" y="40" class="body">Привет</text>
      <text x="230" y="110" class="small" fill="#a8c6e2">16:25</text>
      <g transform="translate(324,100)">
        <g fill="#a8c6e2">
          <circle cx="12" cy="4" r="1.7"/><circle cx="17.7" cy="6.3" r="1.7"/><circle cx="20" cy="12" r="1.7"/><circle cx="17.7" cy="17.7" r="1.7"/>
          <circle cx="12" cy="20" r="1.7"/><circle cx="6.3" cy="17.7" r="1.7"/><circle cx="4" cy="12" r="1.7"/><circle cx="6.3" cy="6.3" r="1.7"/>
        </g>
      </g>
      <text x="330" y="20" class="mono" text-anchor="end">state: pending → dotted ring spins</text>
    </g>
    <!-- day chip + failed -->
    <g transform="translate(24,196)">
      <rect x="60" width="112" height="30" rx="15" fill="rgba(244,244,244,0.08)"/>
      <text x="116" y="20" class="small" fill="#8b8b96" text-anchor="middle">16 September</text>
    </g>
    <g transform="translate(432,196)">
      <rect width="360" height="88" rx="14" fill="#2b5278"/>
      <text x="14" y="40" class="body">не отправилось</text>
      <text x="14" y="68" class="small" fill="#dfeaf6">Resend ↻</text>
      <text x="330" y="20" class="mono" text-anchor="end">state: failed → resend button</text>
    </g>
    <g transform="translate(840,196)">
      <text class="small">Reactions render as chips on the bubble edge;</text>
      <text y="24" class="small">edited/starred flags live in the meta line.</text>
      <rect y="44" width="64" height="30" rx="15" fill="rgba(244,244,244,0.06)"/>
      <text x="32" y="64" class="small" fill="#a8c6e2" text-anchor="middle">👍 2</text>
    </g>
  </g>

  <!-- ======================== composer ======================== -->
  <text x="64" y="2344" class="h2">Component: composer</text>
  <g transform="translate(64,2358)">
    <rect width="1312" height="120" rx="12" fill="#181820" stroke="rgba(244,244,244,0.07)"/>
    <rect x="88" y="34" width="900" height="52" rx="26" fill="#0f0f14" stroke="rgba(244,244,244,0.07)"/>
    <text x="116" y="66" class="body" fill="#8b8b96">Message</text>
    <g transform="translate(24,44)">
      <path d="M21 12.8l-8.5 3.7c-1.6.7-3.3-1-2.6-2.6l3.7-8.5c.6-1.5 2.7-1.4 3.2.1l1.5 4.1c.1.4.4.7.8.8l4.1 1.5c1.4.5 1.5 2.5.1 3.2z" fill="none" stroke="#8b8b96" stroke-width="1.8" stroke-linejoin="round" transform="rotate(-40 12 12)"/>
    </g>
    <g transform="translate(1024,42)">
      <path d="M2 21l21-9L2 3v7l15 2-15 2v7z" fill="#5aa2e6"/>
    </g>
    <text x="1080" y="66" class="mono">send — accent</text>
    <text x="88" y="108" class="mono">input pill 999 · attach lives left of the field</text>
  </g>

  <!-- ======================== screen template ======================== -->
  <text x="64" y="2544" class="h2">Screen template — tablet split</text>
  <text x="1150" y="2544" class="sub">phone = single pane, drawer for the list</text>
  <g transform="translate(64,2558)">
    <rect width="1312" height="640" rx="12" fill="#181820" stroke="rgba(244,244,244,0.07)"/>
    <!-- phone frame -->
    <g transform="translate(24,28)">
      <rect width="380" height="584" rx="28" fill="#0b0b10" stroke="rgba(244,244,244,0.15)" stroke-width="2"/>
      <!-- header -->
      <rect x="0" y="0" width="380" height="64" fill="#181820"/>
      <path d="M28 32l-8-8m0 8l8-8m-8 8h14" stroke="#5aa2e6" stroke-width="2" fill="none" stroke-linecap="round"/>
      <rect x="44" y="16" width="32" height="32" fill="none"/>
      <g transform="translate(44,16)">
        <rect width="11" height="8" fill="steelblue"/><rect x="11" width="10" height="8" fill="goldenrod"/><rect x="21" width="11" height="8" fill="seagreen"/>
        <rect y="8" width="16" height="8" fill="tomato"/><rect x="16" y="8" width="16" height="8" fill="indigo"/>
        <rect y="16" width="16" height="8" fill="mediumorchid"/><rect x="16" y="16" width="16" height="8" fill="darkorange"/>
        <rect y="24" width="11" height="8" fill="teal"/><rect x="11" y="24" width="10" height="8" fill="coral"/><rect x="21" y="24" width="11" height="8" fill="lightslategray"/>
      </g>
      <text x="88" y="38" class="h3">Pavel</text>
      <path d="M330 38c2-4 8-4 10 0m-14-5c3-4.5 11-4.5 14 0m-18-5c4-5.5 15-5.5 19 0" stroke="#8774e1" stroke-width="1.8" fill="none" stroke-linecap="round"/>
      <circle cx="339" cy="44" r="1.4" fill="#8774e1"/>
      <!-- messages -->
      <g transform="translate(16,84)">
        <rect width="220" height="58" rx="14" fill="#1c1c26"/>
        <rect x="12" y="12" width="3" height="28" rx="1.5" fill="#5aa2e6"/>
        <text x="24" y="24" font-size="12" font-weight="600" fill="#5aa2e6">Pavel</text>
        <text x="24" y="42" class="small" fill="#dfeaf6">Обзавёлся сбердевайсом?</text>
      </g>
      <g transform="translate(144,156)">
        <rect width="220" height="58" rx="14" fill="#2b5278"/>
        <rect x="12" y="12" width="3" height="28" rx="1.5" fill="rgba(244,244,244,0.55)"/>
        <text x="24" y="42" class="small" fill="#dfeaf6">Да, с утра</text>
        <text x="150" y="50" font-size="11" fill="#a8c6e2">17:22</text>
        <g transform="translate(184,38) scale(.55)">
          <path d="M3 13l4 4L17 7M10 15l2 2 8-8" fill="none" stroke="#5aa2e6" stroke-width="2.4" stroke-linecap="round" stroke-linejoin="round"/>
        </g>
      </g>
      <g transform="translate(120,228)">
        <rect x="0" width="130" height="26" rx="13" fill="rgba(244,244,244,0.08)"/>
        <text x="65" y="17" font-size="11.5" fill="#8b8b96" text-anchor="middle">Today</text>
      </g>
      <!-- composer -->
      <rect x="12" y="516" width="290" height="44" rx="22" fill="#181820" stroke="rgba(244,244,244,0.07)"/>
      <text x="32" y="543" class="small" fill="#8b8b96">Message</text>
      <path d="M336 556l10-4.5-10-4.5v3.4l7 1.1-7 1.1v3.4z" fill="#5aa2e6"/>
      <!-- caption -->
    </g>
    <text x="24" y="632" class="mono">phone 380px: single pane, BACK pops the overlay history entry</text>
    <!-- tablet split -->
    <g transform="translate(480,28)">
      <rect width="808" height="584" rx="16" fill="#0f0f14" stroke="rgba(244,244,244,0.12)"/>
      <!-- sidebar -->
      <rect width="280" height="584" fill="#181820"/>
      <rect x="0" y="0" width="280" height="56" fill="#181820"/>
      <text x="16" y="34" class="h3">Velta</text>
      <g transform="translate(0,64)">
        <rect width="280" height="64" fill="#2b5278"/>
        <g transform="translate(12,12)">
          <rect width="13" height="10" fill="darkorange"/><rect x="13" width="14" height="10" fill="teal"/><rect x="27" width="13" height="10" fill="tomato"/>
          <rect y="10" width="20" height="10" fill="lightslategray"/><rect x="20" y="10" width="20" height="10" fill="goldenrod"/>
          <rect y="20" width="20" height="10" fill="seagreen"/><rect x="20" y="20" width="20" height="10" fill="coral"/>
          <rect y="30" width="13" height="10" fill="indigo"/><rect x="13" y="30" width="14" height="10" fill="steelblue"/><rect x="27" y="30" width="13" height="10" fill="mediumorchid"/>
        </g>
        <text x="64" y="28" class="h3" fill="#f4f4f4">Delta Chat</text>
        <text x="64" y="50" class="small" fill="rgba(244,244,244,0.75)">Спишь?</text>
        <rect x="232" y="20" width="32" height="22" rx="11" fill="#5aa2e6"/>
        <text x="248" y="35" font-size="12.5" font-weight="600" fill="#0f0f14" text-anchor="middle">11</text>
      </g>
      <g transform="translate(0,128)">
        <g transform="translate(12,12)">
          <rect width="13" height="10" fill="steelblue"/><rect x="13" width="14" height="10" fill="goldenrod"/><rect x="27" width="13" height="10" fill="seagreen"/>
          <rect y="10" width="20" height="10" fill="tomato"/><rect x="20" y="10" width="20" height="10" fill="indigo"/>
          <rect y="20" width="20" height="10" fill="mediumorchid"/><rect x="20" y="20" width="20" height="10" fill="darkorange"/>
          <rect y="30" width="13" height="10" fill="teal"/><rect x="13" y="30" width="14" height="10" fill="coral"/><rect x="27" y="30" width="13" height="10" fill="lightslategray"/>
        </g>
        <text x="64" y="28" class="h3">Pavel</text>
        <g transform="translate(112,16) scale(.8)">
          <path d="M12 2l2.4 2.1 3.1-.4 1.1 3 3 1.1-.4 3.1L23.3 13l-2.1 2.4.4 3.1-3 1.1-1.1 3-3.1-.4L12 24l-2.4-2.1-3.1.4-1.1-3-3-1.1.4-3.1L.7 13l2.1-2.4-.4-3.1 3-1.1 1.1-3 3.1.4z" fill="#5aa2e6" transform="scale(.92) translate(1,0)"/>
          <path d="M8.5 12.5l2.5 2.5 4.5-5" fill="none" stroke="#f4f4f4" stroke-width="2.2" stroke-linecap="round" stroke-linejoin="round"/>
        </g>
        <text x="64" y="50" class="small" fill="#8b8b96">https://github.com/velta</text>
        <text x="236" y="28" class="label">17:24</text>
        <path d="M232 44l4 4 8-8" fill="none" stroke="#a8c6e2" stroke-width="2" stroke-linecap="round"/>
      </g>
      <!-- chat pane -->
      <g transform="translate(280,0)">
        <rect width="528" height="584" fill="#0b0b10"/>
        <rect width="528" height="56" fill="#181820"/>
        <g transform="translate(14,10)">
          <rect width="12" height="9" fill="steelblue"/><rect x="12" width="12" height="9" fill="goldenrod"/><rect x="24" width="12" height="9" fill="seagreen"/>
          <rect y="9" width="18" height="9" fill="tomato"/><rect x="18" y="9" width="18" height="9" fill="indigo"/>
          <rect y="18" width="18" height="9" fill="mediumorchid"/><rect x="18" y="18" width="18" height="9" fill="darkorange"/>
          <rect y="27" width="12" height="9" fill="teal"/><rect x="12" y="27" width="12" height="9" fill="coral"/><rect x="24" y="27" width="12" height="9" fill="lightslategray"/>
        </g>
        <text x="62" y="34" class="h3">Pavel</text>
        <g transform="translate(16,84)">
          <rect width="260" height="52" rx="14" fill="#1c1c26"/>
          <text x="14" y="32" class="small" fill="#f2f2f5">Обзавёлся сбердевайсом?</text>
          <text x="196" y="44" font-size="11" fill="#7d7d8a">17:18</text>
        </g>
        <g transform="translate(252,148)">
          <rect width="260" height="52" rx="14" fill="#2b5278"/>
          <text x="14" y="32" class="small" fill="#f2f2f5">Да, с утра</text>
          <text x="196" y="44" font-size="11" fill="#a8c6e2">17:22</text>
          <g transform="translate(228,32) scale(.5)">
            <path d="M3 13l4 4L17 7M10 15l2 2 8-8" fill="none" stroke="#5aa2e6" stroke-width="2.4" stroke-linecap="round" stroke-linejoin="round"/>
          </g>
        </g>
        <rect x="12" y="524" width="440" height="44" rx="22" fill="#181820" stroke="rgba(244,244,244,0.07)"/>
        <text x="32" y="551" class="small" fill="#8b8b96">Message</text>
        <path d="M480 564l10-4.5-10-4.5v3.4l7 1.1-7 1.1v3.4z" fill="#5aa2e6"/>
      </g>
    </g>
    <text x="480" y="632" class="mono">≥760px: sidebar 280px + chat pane; the relay status line lives under the header</text>
  </g>

  <!-- ======================== footer ======================== -->
  <text x="64" y="3260" class="h2">Motion &amp; states</text>
  <g transform="translate(64,3274)">
    <rect width="1312" height="150" rx="12" fill="#181820" stroke="rgba(244,244,244,0.07)"/>
    <text x="24" y="36" class="small">Hover — --bg-hover overlay on rows and buttons; never a color change on text.</text>
    <text x="24" y="62" class="small">Press — --bg-active on list rows; buttons dim to .8 opacity.</text>
    <text x="24" y="88" class="small">Delivery — pending ring spins (CSS .ticks-spin), flips to ticks; failed swaps the meta line for a Resend button.</text>
    <text x="24" y="114" class="small">Overlays — every fullscreen viewer pushes one history entry; BACK pops it. Safe areas: env(safe-area-inset-*) on the top bars.</text>
  </g>
  <text x="64" y="3456" class="mono">Velta · Delta Chat client · regenerate alongside app/css/main.css</text>
</svg>
